PathFileType	4	(X/Y/Z)	T1_P1_NoVision_NoMovement_0_0-649.trc
DataRate	CameraRate	NumFrames	NumMarkers	Units	OrigDataRate	OrigDataStartFrame	OrigNumFrames
60	60	4	27	m	60	486	649
Frame#	Time	RHip			RKnee			RAnkle			RBigToe			RSmallToe			RHeel			LHip			LKnee			LAnkle			LBigToe			LSmallToe			LHeel			Neck			Head			Nose			RShoulder			RElbow			RWrist			RThumb			RIndex			RPinky			LShoulder			LElbow			LWrist			LThumb			LIndex			LPinky		
		X1	Y1	Z1	X2	Y2	Z2	X3	Y3	Z3	X4	Y4	Z4	X5	Y5	Z5	X6	Y6	Z6	X7	Y7	Z7	X8	Y8	Z8	X9	Y9	Z9	X10	Y10	Z10	X11	Y11	Z11	X12	Y12	Z12	X13	Y13	Z13	X14	Y14	Z14	X15	Y15	Z15	X16	Y16	Z16	X17	Y17	Z17	X18	Y18	Z18	X19	Y19	Z19	X20	Y20	Z20	X21	Y21	Z21	X22	Y22	Z22	X23	Y23	Z23	X24	Y24	Z24	X25	Y25	Z25	X26	Y26	Z26	X27	Y27	Z27
487	8.116666666666667	-71.1873929763567	3816.2813615217597	-509.64158564273737	305.36334602083264	4003.736545736045	-543.177069058765	635.7092439948426	4127.9515661567775	-529.0675745355624	726.1622182010498	4011.902033523222	-503.25565194367175	737.6894123046724	4077.6300727001144	-610.855952655951	663.4686215997375	4175.274369569653	-517.9562764829864	-104.48582275305685	3911.1933045947394	-341.6479808771917	260.6002899076261	4026.667996326998	-336.1132673083187	603.6731267141869	4253.099496604182	-358.803813991383	673.6511449070216	4134.75947155729	-244.488618590401	652.6948298132639	4232.165758927521	-226.17403468635578	631.2434341443021	4292.828111963126	-385.23841460417236	-627.3638412396585	3675.9277708685768	-450.69998212914686	-885.9918280355997	3492.999884215353	-378.2813136840574	-698.9771794575928	3492.107825437126	-317.332842143842	-556.4849196109641	3607.882644055475	-562.8228577873316	-279.25421282463327	3710.5731330234244	-647.8367159781022	-33.135977520333505	3740.4875856459494	-588.8363695239805	78.27310430375391	3757.8578169561147	-539.7210638160342	103.09413284845688	3778.844566806917	-558.5681722290822	93.69341789406485	3799.7164019011047	-578.2076719482606	-615.6260197225641	3823.4923856338987	-343.033121744399	-380.56003287705073	3986.9987862951716	-304.9391443984933	-131.69982979353736	3951.4336309015243	-209.96842045020503	-18.06926446054041	3966.565849008735	-215.1181686686664	6.35617196644559	3960.9059871025315	-198.46639743342485	-9.749083109801687	4005.7178209349327	-203.1575043075696
488	8.133333333333333	-71.16380458248902	3816.0596590261875	-509.5148419792256	309.26654595187284	3985.930809158776	-533.9779381317338	636.1456584578754	4126.422913476998	-525.8576783903466	732.4040992437317	4014.586713816086	-502.3325846915739	733.0813645106447	4057.7598395440573	-596.5475062597731	663.759171532451	4174.8749972879405	-517.6128712930645	-104.4909117404982	3910.9657031146735	-341.51412627134795	260.87316963429356	4026.6550258057455	-336.043272228259	603.5739530678592	4252.416524570998	-358.5987825094246	669.191131752967	4105.25687747439	-240.1169266923575	648.8726488527768	4202.333904083104	-221.69216547076522	626.6334837566257	4259.88569825381	-379.08707814962656	-632.1236007157336	3672.915767915457	-449.56674273179016	-885.9156694178995	3492.996841508944	-378.25726286613934	-699.2166138520585	3491.6914082828007	-317.3206621914683	-556.5776134361568	3607.8859072401524	-562.851794911136	-284.4074019908516	3725.2371696032387	-661.1794378021023	-33.19528271766837	3740.488314258855	-588.8917575472308	78.63107523971895	3783.999989846941	-546.3540993296108	102.99953862896099	3778.998246353106	-558.5743478641751	93.64713414204653	3799.763867764598	-578.1291253003081	-615.6051331023361	3823.5168542549354	-343.019105530191	-380.6351155450486	3986.864931042599	-304.6985093996712	-131.52497559292107	3951.6641485620326	-210.17751082318483	-11.652539274523889	3963.1004884336753	-224.6267480092052	12.760992580282991	3982.552669760534	-211.54529648171194	-9.306730107140258	4006.556518182381	-203.68350115808292
489	8.15	-71.1476233398527	3816.138427056228	-509.4994672316053	302.31618196642927	3982.513845257103	-527.6148771653086	640.5701231227836	4156.837387978042	-532.66159600703	726.8184222170266	4012.210746326339	-503.0532784652734	738.520506425268	4078.528790916594	-610.9076754180817	663.7818349547543	4175.200725205801	-517.6947160247138	-104.45360153226359	3911.0339076144664	-341.53006019437385	260.79314018052906	4026.872013079538	-336.1440930946351	603.8082515656594	4252.67911751954	-358.74723797801613	679.36925122834	4159.0817682403995	-259.12177140801566	653.1814629762727	4232.1291204276395	-226.12800384391133	638.5721221669833	4297.130520410824	-387.0752477575426	-627.4962305482549	3675.861312994181	-450.62465646949596	-885.9950827687808	3493.041512718697	-378.2349810914493	-699.0803840070791	3491.753891953857	-317.23571384188625	-556.5412266457107	3607.969024886413	-562.8448299128102	-283.80296416242345	3725.6121890059685	-666.9328269563551	-33.204950812171184	3740.5150935225415	-588.8601324474606	74.21410341332847	3781.095447080231	-545.0177809041028	97.86998966608064	3779.0932632616987	-559.2379480873473	93.62708991524404	3799.777876796778	-578.1916535929121	-615.5680449942967	3823.29353216471	-342.9096749757511	-385.23329880095093	3983.2270222487396	-303.3099863070151	-136.88899522649953	3949.67518149192	-210.72045205799327	-11.766673321167842	3990.149113383829	-229.26717748057698	7.457112922047289	4006.9925535274215	-216.59473841144757	-9.33762841396302	4006.6409261583594	-203.54033621951694
490	8.166666666666666	-70.45485042986454	3835.326272349441	-523.956188591842	296.456578357919	3978.9228994858317	-525.9662807950268	636.039921995769	4126.272702798907	-525.8933864144644	727.0981634221878	4012.1266209783016	-510.28473581947844	737.3543601655101	4077.565649240807	-610.8497900586059	663.5460731204163	4174.614359581587	-517.550514074708	-104.63863069140669	3911.053456455714	-341.5554512050485	260.63355595448115	4026.533670959697	-336.0146091528279	603.7608734442788	4253.164176064742	-358.79826271532414	684.7963495951286	4162.229961484505	-258.6876900026397	659.029460817681	4235.6931336602975	-225.4957814819954	631.416667084717	4292.751293701837	-385.0645478949684	-632.0363711423745	3672.9015389637234	-449.580523110461	-885.8646508117491	3492.9697448739093	-378.1713063940425	-695.1785657064	3492.8228309172537	-317.1751241730784	-556.5506064814062	3607.9754823940425	-562.8798131469129	-284.3500218491786	3724.89158506623	-660.9825391489051	-33.202172315628594	3740.546744470982	-588.8655301012083	78.66899576149477	3784.3703310019114	-546.6466462565429	97.93390364177696	3779.2511219967823	-559.2741021454582	93.5695121361613	3799.8818384940364	-578.2789102290654	-611.7376649352726	3797.5371005051265	-337.982954821144	-385.28936513565736	3983.2932435364523	-303.520532694514	-131.60115031880852	3951.600612727695	-210.14781090959644	-11.628347045715307	3989.9109108737257	-229.29078603031687	17.35233866303492	3986.342367885025	-213.03573037053417	-9.400113180991463	4006.889139483758	-203.63505518972832
